<?xml version="1.0" encoding="utf-8"?>
<svg width="133.33333px" height="133.33333px" viewBox="0 0 133.33333 133.33333" version="1.1" xmlns:xlink="http://www.w3.org/1999/xlink" xmlns="http://www.w3.org/2000/svg">
  <defs>
    <path d="M133.333 0L133.333 0L133.333 133.333L0 133.333L0 0L133.333 0Z" id="path_1" />
    <clipPath id="clip_1">
      <use xlink:href="#path_1" clip-rule="evenodd" fill-rule="evenodd" />
    </clipPath>
  </defs>
  <g id="rain" clip-path="url(#clip_1)">
    <path d="M133.333 0L133.333 0L133.333 133.333L0 133.333L0 0L133.333 0Z" id="rain" fill="none" stroke="none" />
    <path d="M65.6112 90.0459C73.5129 89.3874 82 77.1689 82 77.1689C82 77.1689 78.7808 76.5836 78.1955 74.2423C77.6101 71.9011 79.3661 70.3646 79.6587 67.8039C79.9514 65.2431 79.3661 63.9993 79.3661 63.9993C79.3661 63.9993 77.1712 68.6818 75.8542 68.6818C74.5372 68.6818 74.3909 66.5601 74.0983 63.9993C73.8056 61.4385 72.939 61.3239 71.622 60.6654C70.3051 60.0069 71.1471 59.3178 69.4157 55.8049C67.6844 52.2919 65.6112 51.415 65.6112 51.415C65.6112 51.415 65.6843 54.8537 64.7332 56.9755C63.782 59.0973 62.0993 60.0484 61.2213 59.9021C60.3433 59.7558 61.2213 56.3902 61.2213 56.3902C61.2213 56.3902 58.4776 56.125 57.4167 59.9021C56.3559 63.6792 57.4167 67.8039 57.4167 67.8039C57.4167 67.8039 56.2042 68.1542 55.0107 67.7329C53.8171 67.3117 52.4416 66.0479 52.4416 66.0479C52.4416 66.0479 47.6273 73.3351 50.3929 79.8028C53.1586 86.2706 57.7094 90.7043 65.6112 90.0459Z" id="Vector-Copy" fill="none" fill-rule="evenodd" stroke="#EBEBEB" stroke-width="3" />
    <path d="M69 88C82.5 86.875 97 66 97 66C97 66 91.5 65 90.5 61C89.5 57 92.5 54.375 93 50C93.5 45.625 92.5 43.5 92.5 43.5C92.5 43.5 88.75 51.5 86.5 51.5C84.25 51.5 84 47.875 83.5 43.5C83 39.125 81.5194 38.9291 79.2694 37.8041C77.0194 36.6791 78.458 35.5018 75.5 29.5C72.542 23.4982 69 22 69 22C69 22 69.125 27.875 67.5 31.5C65.875 35.125 63 36.75 61.5 36.5C60 36.25 61.5 30.5 61.5 30.5C61.5 30.5 56.8125 30.0469 55 36.5C53.1875 42.9531 55 50 55 50C55 50 52.9284 50.5986 50.8893 49.8789C48.8501 49.1591 46.5 47 46.5 47C46.5 47 38.275 59.45 43 70.5C47.725 81.55 55.5 89.125 69 88Z" id="Vector" fill="none" fill-rule="evenodd" stroke="#EBEBEB" stroke-width="3" />
    <path d="M30 103L97 83" id="Vector-2" fill="none" fill-rule="evenodd" stroke="#EBEBEB" stroke-width="12" stroke-linecap="round" />
    <path d="M104 103L38 83" id="Vector-3" fill="none" fill-rule="evenodd" stroke="#EBEBEB" stroke-width="12" stroke-linecap="round" />
  </g>
</svg>