<?xml version="1.0" encoding="UTF-8" standalone="no"?><!-- Generator: Gravit.io --><svg xmlns="http://www.w3.org/2000/svg" xmlns:xlink="http://www.w3.org/1999/xlink" style="isolation:isolate" viewBox="0 0 100 100" width="100pt" height="100pt"><defs><clipPath id="_clipPath_0UJj83y0QHpHLj8yh5eIelFoGGATMwOx"><rect width="100" height="100"/></clipPath></defs><g clip-path="url(#_clipPath_0UJj83y0QHpHLj8yh5eIelFoGGATMwOx)"><rect width="100" height="100" style="fill:rgb(0,0,0)" fill-opacity="0"/><g><mask id="_mask_lpHF811ty9Xy6pKnkrK4WgtobcPyPJKd"><path d=" M 48.665 65.965 C 49.107 65.987 49.552 66 50 66 C 62.694 66 73 55.694 73 43 C 73 30.306 62.694 20 50 20 C 37.306 20 27 30.306 27 43 C 27 49.9 30.045 56.094 34.863 60.312 Q 36.482 59.974 38 59.983 C 42.565 60.013 45.297 63.373 48.665 65.965 Z " fill-rule="evenodd" fill="white" stroke="none"/></mask><path d=" M 48.665 65.965 C 49.107 65.987 49.552 66 50 66 C 62.694 66 73 55.694 73 43 C 73 30.306 62.694 20 50 20 C 37.306 20 27 30.306 27 43 C 27 49.9 30.045 56.094 34.863 60.312 Q 36.482 59.974 38 59.983 C 42.565 60.013 45.297 63.373 48.665 65.965 Z " fill-rule="evenodd" fill="none"/><path d=" M 48.665 65.965 C 49.107 65.987 49.552 66 50 66 C 62.694 66 73 55.694 73 43 C 73 30.306 62.694 20 50 20 C 37.306 20 27 30.306 27 43 C 27 49.9 30.045 56.094 34.863 60.312 Q 36.482 59.974 38 59.983 C 42.565 60.013 45.297 63.373 48.665 65.965 Z " fill-rule="evenodd" fill="none" mask="url(#_mask_lpHF811ty9Xy6pKnkrK4WgtobcPyPJKd)" vector-effect="non-scaling-stroke" stroke-width="6" stroke="rgb(235,235,235)" stroke-linejoin="miter" stroke-linecap="square" stroke-miterlimit="3"/><path d=" M 24 63.983 Q 30.664 58.937 38 58.983 C 45.336 59.03 47.938 67.679 56 67.983 Q 64.063 68.288 71 62.983" fill="none" vector-effect="non-scaling-stroke" stroke-width="3" stroke="rgb(235,235,235)" stroke-linejoin="miter" stroke-linecap="square" stroke-miterlimit="3"/><path d=" M 29 79.983 Q 35.664 74.937 43 74.983 C 50.336 75.03 52.937 83.679 61 83.983 Q 69.063 84.288 76 78.983" fill="none" vector-effect="non-scaling-stroke" stroke-width="3" stroke="rgb(235,235,235)" stroke-linejoin="miter" stroke-linecap="square" stroke-miterlimit="3"/><path d=" M 85 71 Q 78.336 65.954 71 66 C 63.664 66.047 58.063 72.695 50 73 Q 41.938 73.305 36 70" fill="none" vector-effect="non-scaling-stroke" stroke-width="3" stroke="rgb(235,235,235)" stroke-linejoin="miter" stroke-linecap="square" stroke-miterlimit="3"/><path d=" M 16 85.983 Q 22.664 80.937 30 80.983 C 37.336 81.03 39.938 89.679 48 89.983 Q 56.063 90.288 63 84.983" fill="none" vector-effect="non-scaling-stroke" stroke-width="3" stroke="rgb(235,235,235)" stroke-linejoin="miter" stroke-linecap="square" stroke-miterlimit="3"/></g></g></svg>