<?xml version="1.0" encoding="utf-8"?>
<svg width="133.33333px" height="133.33333px" viewBox="0 0 133.33333 133.33333" version="1.1" xmlns:xlink="http://www.w3.org/1999/xlink" xmlns="http://www.w3.org/2000/svg">
  <defs>
    <path d="M133.333 0L133.333 0L133.333 133.333L0 133.333L0 0L133.333 0Z" id="path_1" />
    <clipPath id="clip_1">
      <use xlink:href="#path_1" clip-rule="evenodd" fill-rule="evenodd" />
    </clipPath>
  </defs>
  <g id="ocean" clip-path="url(#clip_1)">
    <path d="M133.333 0L133.333 0L133.333 133.333L0 133.333L0 0L133.333 0Z" id="ocean" fill="none" stroke="none" />
    <path d="M23.6665 101.167C23.6665 101.167 32.2915 94.6667 40.6665 94.6667C49.0416 94.6667 51.4165 101.167 60.1666 101.167C68.9167 101.167 75.6665 96.1667 75.6665 96.1667" id="Vector-Copy-3" fill="none" fill-rule="evenodd" stroke="#EBEBEB" stroke-width="3" stroke-linecap="round" stroke-linejoin="round" />
    <path d="M46.6666 94.1667C46.6666 94.1667 55.2916 87.6667 63.6666 87.6667C72.0417 87.6667 74.4166 94.1667 83.1666 94.1667C91.9168 94.1667 98.6666 89.1667 98.6666 89.1667" id="Vector-Copy-2" fill="none" fill-rule="evenodd" stroke="#EBEBEB" stroke-width="3" stroke-linecap="round" stroke-linejoin="round" />
    <g id="Group-Copy-2" transform="matrix(0.9659258 -0.25881898 0.25881898 0.9659258 11.566566 74.28748)">
      <path d="M0 1L13.5825 1" id="Vector-5-Copy" fill="none" fill-rule="evenodd" stroke="#EBEBEB" stroke-width="3" stroke-linecap="round" />
      <path d="M97 1L110.583 1" id="Vector-5" fill="none" fill-rule="evenodd" stroke="#EBEBEB" stroke-width="3" stroke-linecap="round" />
    </g>
    <path d="M25.6667 84.1667C25.6667 84.1667 34.2917 77.6667 42.6667 77.6667C51.0418 77.6667 53.4167 84.1667 62.1667 84.1667C70.9169 84.1667 77.6667 79.1667 77.6667 79.1667" id="Vector-Copy" fill="none" fill-rule="evenodd" stroke="#EBEBEB" stroke-width="3" stroke-linecap="round" stroke-linejoin="round" />
    <path d="M66.6667 87.1667C66.6667 87.1667 75.2916 80.6667 83.6667 80.6667C92.0418 80.6667 94.4167 87.1667 103.167 87.1667C111.917 87.1667 118.667 82.1667 118.667 82.1667" id="Vector" fill="none" fill-rule="evenodd" stroke="#EBEBEB" stroke-width="3" stroke-linecap="round" stroke-linejoin="round" />
    <g id="Group-Copy" transform="matrix(0.9659258 0.25881898 -0.25881898 0.9659258 12.644482 45.39023)">
      <path d="M0 1L13.5825 1" id="Vector-5-Copy" fill="none" fill-rule="evenodd" stroke="#EBEBEB" stroke-width="3" stroke-linecap="round" />
      <path d="M97 1L110.583 1" id="Vector-5" fill="none" fill-rule="evenodd" stroke="#EBEBEB" stroke-width="3" stroke-linecap="round" />
    </g>
    <path d="M40.6667 77.6667C28.2666 65.0413 33.153 25.1667 66.6667 25.1667C100.18 25.1667 107.992 67.6425 88.667 82.1677" id="Vector-4" fill="none" fill-rule="evenodd" stroke="#EBEBEB" stroke-width="3" />
    <g id="Group" transform="translate(10.08416 59.666622)">
      <path d="M0 1L13.5825 1" id="Vector-5-Copy" fill="none" fill-rule="evenodd" stroke="#EBEBEB" stroke-width="3" stroke-linecap="round" />
      <path d="M97 1L110.583 1" id="Vector-5" fill="none" fill-rule="evenodd" stroke="#EBEBEB" stroke-width="3" stroke-linecap="round" />
    </g>
  </g>
</svg>