<?xml version="1.0" encoding="utf-8"?>
<svg width="133.33333px" height="133.33333px" viewBox="0 0 133.33333 133.33333" version="1.1" xmlns:xlink="http://www.w3.org/1999/xlink" xmlns="http://www.w3.org/2000/svg">
  <defs>
    <path d="M133.333 0L133.333 0L133.333 133.333L0 133.333L0 0L133.333 0Z" id="path_1" />
    <path d="M133.333 0L133.333 0L133.333 133.333L0 133.333L0 0L133.333 0L133.333 0Z" id="path_2" />
    <clipPath id="clip_1">
      <use xlink:href="#path_1" clip-rule="evenodd" fill-rule="evenodd" />
    </clipPath>
    <clipPath id="clip_2">
      <use xlink:href="#path_2" clip-rule="evenodd" fill-rule="evenodd" />
    </clipPath>
  </defs>
  <g id="peepers" clip-path="url(#clip_1)">
    <path d="M133.333 0L133.333 0L133.333 133.333L0 133.333L0 0L133.333 0Z" id="peepers" fill="none" stroke="none" />
    <g id="Mask-Group">
      <path d="M133.333 0L133.333 0L133.333 133.333L0 133.333L0 0L133.333 0L133.333 0Z" id="path_1" fill="none" fill-rule="evenodd" stroke="none" />
      <g clip-path="url(#clip_2)">
        <g id="peepers">
          <path d="M133.333 0L133.333 0L133.333 133.333L0 133.333L0 0L133.333 0L133.333 0Z" id="peepers#1" fill="none" stroke="none" />
          <path d="M85 51.5C85 48.4624 87.4624 46 90.5 46C93.5376 46 96 48.4624 96 51.5C96 54.5376 93.5376 57 90.5 57C87.4624 57 85 54.5376 85 51.5L85 51.5Z" id="Oval" fill="none" stroke="#EBEBEB" stroke-width="3" />
          <path d="M88 51C88 49.8954 88.8954 49 90 49C91.1046 49 92 49.8954 92 51C92 52.1046 91.1046 53 90 53C88.8954 53 88 52.1046 88 51L88 51Z" id="Oval-2" fill="#EBEBEB" fill-rule="evenodd" stroke="none" />
          <path d="M28.0301 57.9895C32.496 55.8361 35.737 57.3946 43 52.0001C50.2632 46.6057 51.2622 45.8701 59.0001 46.0001C66.7381 46.13 67.7052 47.9151 72.5002 46.0001C77.2952 44.085 85.1655 43.51 86.5003 42.5C87.8351 41.49 87.112 36.2407 91.5001 36C95.8882 35.7594 95.6401 40.6169 98.0002 41C100.36 41.3831 113.715 45.6855 104.5 53C95.2853 60.3145 90.4375 58.5001 88.0001 64C85.5625 69.5001 86.9375 78.0002 90.0001 78.5004C93.0626 79.0005 94.6252 82.0005 98.0002 83.5005C101.375 85.0005 99.6252 78.5004 101 78.5004C102.375 78.5004 101.375 82.2505 103.5 83.5005C105.625 84.7505 108.75 82.5005 109.5 83.5005C110.25 84.5005 106.125 85.5005 106.5 87.5004C106.875 89.5004 111.75 91.0005 111 91.5005C110.25 92.0005 110 91.1254 103.5 89.5004C97.0003 87.8754 89.9378 87.0502 86.5003 84.9253C83.0628 82.8002 81.7503 72.6064 80.5003 72.5002C79.2502 72.3939 75.9377 78.2501 56.5001 76.5001C52.8126 76.2501 60.6876 79.9376 53 82.5002C45.3125 85.0627 36.1875 77.2502 35 78.5004C33.8125 79.7505 41.5 84.6251 47.5 88.5C53.5 92.375 60.725 91.8754 61.5 94.0004C62.275 96.1254 51.6251 91.6255 51.0001 94.0004C50.3751 96.3754 59.75 102 57 103.5C54.25 105 51.3751 97.8749 48.5001 97.5C45.6251 97.1252 48.375 106.5 46.5 105C44.625 103.5 42.625 92.2505 40 89.5004C37.375 86.7503 32.6875 84.2502 29.5 80.5001C26.3125 76.75 23.0625 73 23 66C23.4375 63.3125 23.5641 60.143 28.0301 57.9895L28.0301 57.9895Z" id="Vector" fill="none" fill-rule="evenodd" stroke="#EBEBEB" stroke-width="3" />
          <path d="M24 64.5C24 64.5 42.5833 59.5651 52 70" id="Vector-2" fill="none" fill-rule="evenodd" stroke="#EBEBEB" stroke-width="3" stroke-linecap="round" />
        </g>
      </g>
    </g>
  </g>
</svg>