<?xml version="1.0" encoding="UTF-8" standalone="no"?><!-- Generator: Gravit.io --><svg xmlns="http://www.w3.org/2000/svg" xmlns:xlink="http://www.w3.org/1999/xlink" style="isolation:isolate" viewBox="0 0 100 100" width="100pt" height="100pt"><defs><clipPath id="_clipPath_uinScEqBWGzzR5p1sNeN9LNWbvYqdqIt"><rect width="100" height="100"/></clipPath></defs><g clip-path="url(#_clipPath_uinScEqBWGzzR5p1sNeN9LNWbvYqdqIt)"><rect width="100" height="100" style="fill:rgb(0,0,0)" fill-opacity="0"/><mask id="_mask_2JrYy1T0W1G4l9nzrynHIB29YhdkoyTx" x="-200%" y="-200%" width="400%" height="400%"><rect x="-200%" y="-200%" width="400%" height="400%" style="fill:white;"/><path d=" M 51.148 62.854 L 50 62.854 L 33.601 62.854 L 33.601 62.854 C 25.183 62.854 18.349 56.02 18.349 47.603 C 18.349 42.19 21.175 37.432 25.43 34.725 C 25.897 26.728 32.539 20.38 40.652 20.38 C 41.366 20.38 42.069 20.429 42.756 20.525 C 45.407 16.023 50.305 13 55.904 13 C 64.321 13 71.155 19.834 71.155 28.251 C 71.155 29.87 70.903 31.43 70.432 32.893 L 70.432 32.893 C 76.896 34.662 81.651 40.581 81.651 47.603 C 81.651 56.02 74.817 62.854 66.399 62.854 L 66.399 62.854 L 51.148 62.854 L 51.148 62.854 L 51.148 62.854 Z " fill-rule="evenodd" fill="black" stroke="none"/></mask><path d=" M 51.148 62.854 L 50 62.854 L 33.601 62.854 L 33.601 62.854 C 25.183 62.854 18.349 56.02 18.349 47.603 C 18.349 42.19 21.175 37.432 25.43 34.725 C 25.897 26.728 32.539 20.38 40.652 20.38 C 41.366 20.38 42.069 20.429 42.756 20.525 C 45.407 16.023 50.305 13 55.904 13 C 64.321 13 71.155 19.834 71.155 28.251 C 71.155 29.87 70.903 31.43 70.432 32.893 L 70.432 32.893 C 76.896 34.662 81.651 40.581 81.651 47.603 C 81.651 56.02 74.817 62.854 66.399 62.854 L 66.399 62.854 L 51.148 62.854 L 51.148 62.854 L 51.148 62.854 Z " fill-rule="evenodd" fill="none"/><path d=" M 51.148 62.854 L 50 62.854 L 33.601 62.854 L 33.601 62.854 C 25.183 62.854 18.349 56.02 18.349 47.603 C 18.349 42.19 21.175 37.432 25.43 34.725 C 25.897 26.728 32.539 20.38 40.652 20.38 C 41.366 20.38 42.069 20.429 42.756 20.525 C 45.407 16.023 50.305 13 55.904 13 C 64.321 13 71.155 19.834 71.155 28.251 C 71.155 29.87 70.903 31.43 70.432 32.893 L 70.432 32.893 C 76.896 34.662 81.651 40.581 81.651 47.603 C 81.651 56.02 74.817 62.854 66.399 62.854 L 66.399 62.854 L 51.148 62.854 L 51.148 62.854 L 51.148 62.854 Z " fill-rule="evenodd" fill="none" mask="url(#_mask_2JrYy1T0W1G4l9nzrynHIB29YhdkoyTx)" vector-effect="non-scaling-stroke" stroke-width="6" stroke="rgb(255,255,255)" stroke-linejoin="miter" stroke-linecap="butt" stroke-miterlimit="4"/><mask id="_mask_85RTEovZEcIy4whIEbmgFWUL2fXy1wYA"><path d=" M 49.016 84.212 L 46 84.212 L 52.244 70 L 50.984 81.968 L 54 81.968 L 47.756 96.18 L 49.016 84.212 Z " fill="white" stroke="none"/></mask><path d=" M 49.016 84.212 L 46 84.212 L 52.244 70 L 50.984 81.968 L 54 81.968 L 47.756 96.18 L 49.016 84.212 Z " fill="none"/><path d=" M 49.016 84.212 L 46 84.212 L 52.244 70 L 50.984 81.968 L 54 81.968 L 47.756 96.18 L 49.016 84.212 Z " fill="none" mask="url(#_mask_85RTEovZEcIy4whIEbmgFWUL2fXy1wYA)" vector-effect="non-scaling-stroke" stroke-width="6" stroke="rgb(255,255,255)" stroke-linejoin="miter" stroke-linecap="square" stroke-miterlimit="3"/><mask id="_mask_b8n2Pa4IC2vwRMRfkJHCgevRLVZRAsza"><path d=" M 32.616 81.032 L 29.601 81.032 L 35.845 66.82 L 34.585 78.788 L 37.601 78.788 L 31.357 93 L 32.616 81.032 Z " fill="white" stroke="none"/></mask><path d=" M 32.616 81.032 L 29.601 81.032 L 35.845 66.82 L 34.585 78.788 L 37.601 78.788 L 31.357 93 L 32.616 81.032 Z " fill="none"/><path d=" M 32.616 81.032 L 29.601 81.032 L 35.845 66.82 L 34.585 78.788 L 37.601 78.788 L 31.357 93 L 32.616 81.032 Z " fill="none" mask="url(#_mask_b8n2Pa4IC2vwRMRfkJHCgevRLVZRAsza)" vector-effect="non-scaling-stroke" stroke-width="6" stroke="rgb(255,255,255)" stroke-linejoin="miter" stroke-linecap="square" stroke-miterlimit="3"/><mask id="_mask_cHN9oyw840qSQ1qqp132zXGeiMoGKwnz"><path d=" M 65.415 81.032 L 62.399 81.032 L 68.643 66.82 L 67.384 78.788 L 70.399 78.788 L 64.155 93 L 65.415 81.032 Z " fill="white" stroke="none"/></mask><path d=" M 65.415 81.032 L 62.399 81.032 L 68.643 66.82 L 67.384 78.788 L 70.399 78.788 L 64.155 93 L 65.415 81.032 Z " fill="none"/><path d=" M 65.415 81.032 L 62.399 81.032 L 68.643 66.82 L 67.384 78.788 L 70.399 78.788 L 64.155 93 L 65.415 81.032 Z " fill="none" mask="url(#_mask_cHN9oyw840qSQ1qqp132zXGeiMoGKwnz)" vector-effect="non-scaling-stroke" stroke-width="6" stroke="rgb(255,255,255)" stroke-linejoin="miter" stroke-linecap="square" stroke-miterlimit="3"/></g></svg>