<?xml version="1.0" encoding="UTF-8" standalone="no"?><!-- Generator: Gravit.io --><svg xmlns="http://www.w3.org/2000/svg" xmlns:xlink="http://www.w3.org/1999/xlink" style="isolation:isolate" viewBox="0 0 100 100" width="100pt" height="100pt"><defs><clipPath id="_clipPath_iS8gVuVyvfuFLxJzcGmxzo3nvyMeszfj"><rect width="100" height="100"/></clipPath></defs><g clip-path="url(#_clipPath_iS8gVuVyvfuFLxJzcGmxzo3nvyMeszfj)"><rect width="100" height="100" style="fill:rgb(0,0,0)" fill-opacity="0"/><g><mask id="_mask_2mIevr8mTqSrGsRl8vfcx6rWE1C6XzyE" x="-200%" y="-200%" width="400%" height="400%"><rect x="-200%" y="-200%" width="400%" height="400%" style="fill:white;"/><path d=" M 51.148 62.854 L 50 62.854 L 33.601 62.854 L 33.601 62.854 C 25.183 62.854 18.349 56.02 18.349 47.603 C 18.349 42.19 21.175 37.432 25.43 34.725 C 25.897 26.728 32.539 20.38 40.652 20.38 C 41.366 20.38 42.069 20.429 42.756 20.525 C 45.407 16.023 50.305 13 55.904 13 C 64.321 13 71.155 19.834 71.155 28.251 C 71.155 29.87 70.903 31.43 70.432 32.893 L 70.432 32.893 C 76.896 34.662 81.651 40.581 81.651 47.603 C 81.651 56.02 74.817 62.854 66.399 62.854 L 66.399 62.854 L 51.148 62.854 L 51.148 62.854 L 51.148 62.854 Z " fill-rule="evenodd" fill="black" stroke="none"/></mask><path d=" M 51.148 62.854 L 50 62.854 L 33.601 62.854 L 33.601 62.854 C 25.183 62.854 18.349 56.02 18.349 47.603 C 18.349 42.19 21.175 37.432 25.43 34.725 C 25.897 26.728 32.539 20.38 40.652 20.38 C 41.366 20.38 42.069 20.429 42.756 20.525 C 45.407 16.023 50.305 13 55.904 13 C 64.321 13 71.155 19.834 71.155 28.251 C 71.155 29.87 70.903 31.43 70.432 32.893 L 70.432 32.893 C 76.896 34.662 81.651 40.581 81.651 47.603 C 81.651 56.02 74.817 62.854 66.399 62.854 L 66.399 62.854 L 51.148 62.854 L 51.148 62.854 L 51.148 62.854 Z " fill-rule="evenodd" fill="none"/><path d=" M 51.148 62.854 L 50 62.854 L 33.601 62.854 L 33.601 62.854 C 25.183 62.854 18.349 56.02 18.349 47.603 C 18.349 42.19 21.175 37.432 25.43 34.725 C 25.897 26.728 32.539 20.38 40.652 20.38 C 41.366 20.38 42.069 20.429 42.756 20.525 C 45.407 16.023 50.305 13 55.904 13 C 64.321 13 71.155 19.834 71.155 28.251 C 71.155 29.87 70.903 31.43 70.432 32.893 L 70.432 32.893 C 76.896 34.662 81.651 40.581 81.651 47.603 C 81.651 56.02 74.817 62.854 66.399 62.854 L 66.399 62.854 L 51.148 62.854 L 51.148 62.854 L 51.148 62.854 Z " fill-rule="evenodd" fill="none" mask="url(#_mask_2mIevr8mTqSrGsRl8vfcx6rWE1C6XzyE)" vector-effect="non-scaling-stroke" stroke-width="6" stroke="rgb(255,255,255)" stroke-linejoin="miter" stroke-linecap="butt" stroke-miterlimit="4"/><mask id="_mask_bu4BX37sayaITLuwgmjG4OlBFjRRs3Nb"><path d=" M 45.485 89.591 C 45.485 86.605 48.921 84.171 50.894 78.027 C 52.718 84.137 56.303 86.605 56.303 89.591 C 56.303 92.576 53.88 95 50.894 95 C 47.909 95 45.485 92.576 45.485 89.591 Z " fill="white" stroke="none"/></mask><path d=" M 45.485 89.591 C 45.485 86.605 48.921 84.171 50.894 78.027 C 52.718 84.137 56.303 86.605 56.303 89.591 C 56.303 92.576 53.88 95 50.894 95 C 47.909 95 45.485 92.576 45.485 89.591 Z " fill="none"/><path d=" M 45.485 89.591 C 45.485 86.605 48.921 84.171 50.894 78.027 C 52.718 84.137 56.303 86.605 56.303 89.591 C 56.303 92.576 53.88 95 50.894 95 C 47.909 95 45.485 92.576 45.485 89.591 Z " fill="none" mask="url(#_mask_bu4BX37sayaITLuwgmjG4OlBFjRRs3Nb)" vector-effect="non-scaling-stroke" stroke-width="6" stroke="rgb(255,255,255)" stroke-linejoin="miter" stroke-linecap="square" stroke-miterlimit="3"/><mask id="_mask_ElJPjouVNAYNbwcbBPbian1E0JEDxVbz"><path d=" M 28.549 84.287 C 28.549 81.302 31.985 78.868 33.959 72.723 C 35.783 78.833 39.368 81.302 39.368 84.287 C 39.368 87.273 36.944 89.697 33.959 89.697 C 30.973 89.697 28.549 87.273 28.549 84.287 Z " fill="white" stroke="none"/></mask><path d=" M 28.549 84.287 C 28.549 81.302 31.985 78.868 33.959 72.723 C 35.783 78.833 39.368 81.302 39.368 84.287 C 39.368 87.273 36.944 89.697 33.959 89.697 C 30.973 89.697 28.549 87.273 28.549 84.287 Z " fill="none"/><path d=" M 28.549 84.287 C 28.549 81.302 31.985 78.868 33.959 72.723 C 35.783 78.833 39.368 81.302 39.368 84.287 C 39.368 87.273 36.944 89.697 33.959 89.697 C 30.973 89.697 28.549 87.273 28.549 84.287 Z " fill="none" mask="url(#_mask_ElJPjouVNAYNbwcbBPbian1E0JEDxVbz)" vector-effect="non-scaling-stroke" stroke-width="6" stroke="rgb(255,255,255)" stroke-linejoin="miter" stroke-linecap="square" stroke-miterlimit="3"/><mask id="_mask_vpTzb5nGBiGGyojdFgbEDk5D0YqhiTY1"><path d=" M 63.244 84.287 C 63.244 81.302 66.68 78.868 68.653 72.723 C 70.477 78.833 74.062 81.302 74.062 84.287 C 74.062 87.273 71.638 89.697 68.653 89.697 C 65.667 89.697 63.244 87.273 63.244 84.287 Z " fill="white" stroke="none"/></mask><path d=" M 63.244 84.287 C 63.244 81.302 66.68 78.868 68.653 72.723 C 70.477 78.833 74.062 81.302 74.062 84.287 C 74.062 87.273 71.638 89.697 68.653 89.697 C 65.667 89.697 63.244 87.273 63.244 84.287 Z " fill="none"/><path d=" M 63.244 84.287 C 63.244 81.302 66.68 78.868 68.653 72.723 C 70.477 78.833 74.062 81.302 74.062 84.287 C 74.062 87.273 71.638 89.697 68.653 89.697 C 65.667 89.697 63.244 87.273 63.244 84.287 Z " fill="none" mask="url(#_mask_vpTzb5nGBiGGyojdFgbEDk5D0YqhiTY1)" vector-effect="non-scaling-stroke" stroke-width="6" stroke="rgb(255,255,255)" stroke-linejoin="miter" stroke-linecap="square" stroke-miterlimit="3"/></g></g></svg>