<?xml version="1.0" encoding="utf-8"?>
<svg width="133.33333px" height="133.33333px" viewBox="0 0 133.33333 133.33333" version="1.1" xmlns:xlink="http://www.w3.org/1999/xlink" xmlns="http://www.w3.org/2000/svg">
  <defs>
    <path d="M133.333 0L133.333 0L133.333 133.333L0 133.333L0 0L133.333 0Z" id="path_1" />
    <clipPath id="clip_1">
      <use xlink:href="#path_1" clip-rule="evenodd" fill-rule="evenodd" />
    </clipPath>
  </defs>
  <g id="rain" clip-path="url(#clip_1)">
    <path d="M133.333 0L133.333 0L133.333 133.333L0 133.333L0 0L133.333 0Z" id="rain" fill="none" stroke="none" />
    <path d="M58.0002 28C58.0002 28 64.6002 14.05 80.1003 20.1C95.6003 26.15 90.0004 41.0002 90.0004 41.0002C90.0004 41.0002 101.969 43.6312 102.25 57.5376C102.532 71.444 88.0004 73.5002 88.0004 73.5002L46.0001 73.5002C46.0001 73.5002 33.625 73.8255 31.5 60.0004C29.375 46.1752 39.5001 43.0002 39.5001 43.0002C39.5001 43.0002 40.3376 35.2375 46.0001 31C51.6627 26.7625 58.0002 28 58.0002 28Z" id="Vector" fill="none" fill-rule="evenodd" stroke="#EBEBEB" stroke-width="3" />
    <path d="M54 84.2383L54 101" id="Vector-2-Copy-2" fill="none" fill-rule="evenodd" stroke="#EBEBEB" stroke-width="3" stroke-linecap="round" />
    <path d="M66 84L66 109.762" id="Vector-2" fill="none" fill-rule="evenodd" stroke="#EBEBEB" stroke-width="3" stroke-linecap="round" />
    <path d="M78 84.2383L78 101" id="Vector-2-Copy" fill="none" fill-rule="evenodd" stroke="#EBEBEB" stroke-width="3" stroke-linecap="round" />
  </g>
</svg>