<?xml version="1.0" encoding="utf-8"?>
<svg width="133.33333px" height="133.33333px" viewBox="0 0 133.33333 133.33333" version="1.1" xmlns:xlink="http://www.w3.org/1999/xlink" xmlns="http://www.w3.org/2000/svg">
  <defs>
    <path d="M133.333 0L133.333 0L133.333 133.333L0 133.333L0 0L133.333 0Z" id="path_1" />
    <clipPath id="clip_1">
      <use xlink:href="#path_1" clip-rule="evenodd" fill-rule="evenodd" />
    </clipPath>
  </defs>
  <g id="rain" clip-path="url(#clip_1)">
    <path d="M133.333 0L133.333 0L133.333 133.333L0 133.333L0 0L133.333 0Z" id="rain" fill="none" stroke="none" />
    <path d="M58.0002 28C58.0002 28 64.6002 14.05 80.1003 20.1C95.6003 26.15 90.0004 41.0002 90.0004 41.0002C90.0004 41.0002 101.969 43.6312 102.25 57.5376C102.532 71.444 88.0004 73.5002 88.0004 73.5002L46.0001 73.5002C46.0001 73.5002 33.625 73.8255 31.5 60.0004C29.375 46.1752 39.5001 43.0002 39.5001 43.0002C39.5001 43.0002 40.3376 35.2375 46.0001 31C51.6627 26.7625 58.0002 28 58.0002 28Z" id="Vector" fill="none" fill-rule="evenodd" stroke="#EBEBEB" stroke-width="3" />
    <path d="M65 81.5C65 80.6716 65.6716 80 66.5 80C67.3284 80 68 80.6716 68 81.5C68 82.3284 67.3284 83 66.5 83C65.6716 83 65 82.3284 65 81.5Z" id="Oval" fill="#EBEBEB" fill-rule="evenodd" stroke="none" />
    <path d="M79 84.5C79 83.6716 79.6716 83 80.5 83C81.3284 83 82 83.6716 82 84.5C82 85.3284 81.3284 86 80.5 86C79.6716 86 79 85.3284 79 84.5Z" id="Oval-Copy" fill="#EBEBEB" fill-rule="evenodd" stroke="none" />
    <path d="M51 84.5C51 83.6716 51.6716 83 52.5 83C53.3284 83 54 83.6716 54 84.5C54 85.3284 53.3284 86 52.5 86C51.6716 86 51 85.3284 51 84.5Z" id="Oval-Copy-2" fill="#EBEBEB" fill-rule="evenodd" stroke="none" />
    <path d="M44 90.5C44 89.6716 44.6716 89 45.5 89C46.3284 89 47 89.6716 47 90.5C47 91.3284 46.3284 92 45.5 92C44.6716 92 44 91.3284 44 90.5Z" id="Oval-Copy-10" fill="#EBEBEB" fill-rule="evenodd" stroke="none" />
    <path d="M86 90.5C86 89.6716 86.6716 89 87.5 89C88.3284 89 89 89.6716 89 90.5C89 91.3284 88.3284 92 87.5 92C86.6716 92 86 91.3284 86 90.5Z" id="Oval-Copy-11" fill="#EBEBEB" fill-rule="evenodd" stroke="none" />
    <path d="M58 87.5C58 86.6716 58.6716 86 59.5 86C60.3284 86 61 86.6716 61 87.5C61 88.3284 60.3284 89 59.5 89C58.6716 89 58 88.3284 58 87.5Z" id="Oval-Copy-6" fill="#EBEBEB" fill-rule="evenodd" stroke="none" />
    <path d="M72 87.5C72 86.6716 72.6716 86 73.5 86C74.3284 86 75 86.6716 75 87.5C75 88.3284 74.3284 89 73.5 89C72.6716 89 72 88.3284 72 87.5Z" id="Oval-Copy-7" fill="#EBEBEB" fill-rule="evenodd" stroke="none" />
    <path d="M72 101.5C72 100.672 72.6716 100 73.5 100C74.3284 100 75 100.672 75 101.5C75 102.328 74.3284 103 73.5 103C72.6716 103 72 102.328 72 101.5Z" id="Oval-Copy-8" fill="#EBEBEB" fill-rule="evenodd" stroke="none" />
    <path d="M58 101.5C58 100.672 58.6716 100 59.5 100C60.3284 100 61 100.672 61 101.5C61 102.328 60.3284 103 59.5 103C58.6716 103 58 102.328 58 101.5Z" id="Oval-Copy-9" fill="#EBEBEB" fill-rule="evenodd" stroke="none" />
    <path d="M65 94C65 93.1716 65.6716 92.5 66.5 92.5C67.3284 92.5 68 93.1716 68 94C68 94.8284 67.3284 95.5 66.5 95.5C65.6716 95.5 65 94.8284 65 94Z" id="Oval-Copy-3" fill="#EBEBEB" fill-rule="evenodd" stroke="none" />
    <path d="M79 98C79 97.1716 79.6716 96.5 80.5 96.5C81.3284 96.5 82 97.1716 82 98C82 98.8284 81.3284 99.5 80.5 99.5C79.6716 99.5 79 98.8284 79 98Z" id="Oval-Copy-4" fill="#EBEBEB" fill-rule="evenodd" stroke="none" />
    <path d="M51 97C51 96.1716 51.6716 95.5 52.5 95.5C53.3284 95.5 54 96.1716 54 97C54 97.8284 53.3284 98.5 52.5 98.5C51.6716 98.5 51 97.8284 51 97Z" id="Oval-Copy-5" fill="#EBEBEB" fill-rule="evenodd" stroke="none" />
  </g>
</svg>